<svg width="20" height="20" viewBox="0 0 20 20" fill="none" xmlns="http://www.w3.org/2000/svg">
<path id="finish" d="M13.75 1.87254C10.1786 1.87254 9.22643 0 4.70286 0C1.78571 0 0 1.92497 0 1.92497V19.3758C0 19.7204 0.32 20 0.714286 20C1.10857 20 1.42857 19.7204 1.42857 19.3758V11.42C2.18214 10.9956 3.22214 10.6111 4.52429 10.6111C9.04786 10.6111 10.3571 12.4836 13.9286 12.4836C17.5 12.4836 20 10.6111 20 10.6111V0C20 0 17.3214 1.87254 13.75 1.87254ZM18.5714 9.97503C17.7643 10.4351 16.0543 11.2353 13.9286 11.2353C12.5243 11.2353 11.5657 10.8982 10.3521 10.4719C8.87286 9.95256 7.19571 9.36271 4.52429 9.36271C3.30357 9.36271 2.26786 9.63111 1.42857 9.99001V2.43243C1.96643 2.00487 3.13857 1.24836 4.70286 1.24836C6.80357 1.24836 7.98643 1.69403 9.23857 2.16528C10.4857 2.63467 11.7757 3.1209 13.75 3.1209C15.6529 3.1209 17.3243 2.66088 18.5714 2.16653V9.97441V9.97503Z" fill="#A1AFBF"/>
</svg>
