<svg width="22" height="22" viewBox="0 0 22 22" fill="none" xmlns="http://www.w3.org/2000/svg">
<g id="people">
<path id="Vector" d="M17.0258 6.15935C16.9657 6.14936 16.8955 6.14936 16.8354 6.15935C15.453 6.10936 14.3511 4.9795 14.3511 3.57968C14.3511 2.14986 15.5031 1 16.9356 1C18.3681 1 19.5201 2.15985 19.5201 3.57968C19.5101 4.9795 18.4082 6.10936 17.0258 6.15935Z" stroke="#A1AFBF" stroke-width="1.5" stroke-linecap="round" stroke-linejoin="round"/>
<path id="Vector_2" d="M15.9937 13.4385C17.3661 13.6685 18.8787 13.4285 19.9406 12.7186C21.3531 11.7787 21.3531 10.2389 19.9406 9.29905C18.8687 8.58918 17.336 8.3492 15.9636 8.58917" stroke="#A1AFBF" stroke-width="1.5" stroke-linecap="round" stroke-linejoin="round"/>
<path id="Vector_3" d="M4.97435 6.15935C5.03446 6.14936 5.10458 6.14936 5.16468 6.15935C6.54711 6.10936 7.64904 4.9795 7.64904 3.57968C7.64904 2.14986 6.49702 1 5.06451 1C3.632 1 2.47998 2.15985 2.47998 3.57968C2.49 4.9795 3.59193 6.10936 4.97435 6.15935Z" stroke="#A1AFBF" stroke-width="1.5" stroke-linecap="round" stroke-linejoin="round"/>
<path id="Vector_4" d="M6.00627 13.4384C4.63387 13.6684 3.12122 13.4284 2.05936 12.7185C0.646881 11.7787 0.646881 10.2388 2.05936 9.29897C3.13123 8.58909 4.66392 8.34911 6.03632 8.58908" stroke="#A1AFBF" stroke-width="1.5" stroke-linecap="round" stroke-linejoin="round"/>
<path id="Vector_5" d="M11.0151 13.6284C10.955 13.6184 10.8848 13.6184 10.8247 13.6284C9.4423 13.5784 8.34033 12.4485 8.34033 11.0487C8.34033 9.61888 9.49239 8.46899 10.9249 8.46899C12.3574 8.46899 13.5094 9.62888 13.5094 11.0487C13.4994 12.4485 12.3975 13.5884 11.0151 13.6284Z" stroke="#A1AFBF" stroke-width="1.5" stroke-linecap="round" stroke-linejoin="round"/>
<path id="Vector_6" d="M8.09988 16.7781C6.68741 17.7179 6.68741 19.2577 8.09988 20.1976C9.70272 21.2675 12.3273 21.2675 13.9301 20.1976C15.3426 19.2577 15.3426 17.7179 13.9301 16.7781C12.3373 15.7182 9.70272 15.7182 8.09988 16.7781Z" stroke="#A1AFBF" stroke-width="1.5" stroke-linecap="round" stroke-linejoin="round"/>
</g>
</svg>
