<svg width="22" height="22" viewBox="0 0 22 22" fill="none" xmlns="http://www.w3.org/2000/svg">
<g id="settings">
<path id="Vector" d="M11.0001 14C12.7574 14 14.182 12.6569 14.182 11C14.182 9.34315 12.7574 8 11.0001 8C9.24272 8 7.81812 9.34315 7.81812 11C7.81812 12.6569 9.24272 14 11.0001 14Z" stroke="#A1AFBF" stroke-width="1.5"/>
<path id="Vector_2" d="M12.8725 1.15224C12.4826 1 11.9884 1 11 1C10.0116 1 9.51744 1 9.12754 1.15224C8.60779 1.35523 8.19483 1.74458 7.97953 2.23463C7.88125 2.45834 7.84278 2.7185 7.82773 3.09799C7.80562 3.65568 7.50227 4.17189 6.98964 4.45093C6.47703 4.72996 5.8512 4.71954 5.32787 4.45876C4.97177 4.2813 4.71357 4.18262 4.45894 4.15102C3.90114 4.08178 3.33703 4.22429 2.89069 4.5472C2.55593 4.78938 2.30883 5.1929 1.81463 5.99993C1.32043 6.80697 1.07333 7.21048 1.01825 7.60491C0.944825 8.1308 1.09598 8.66266 1.43847 9.0835C1.59479 9.2756 1.81449 9.437 2.15548 9.639C2.65675 9.936 2.97928 10.4419 2.97925 11C2.97922 11.5581 2.6567 12.0639 2.15547 12.3608C1.81444 12.5629 1.5947 12.7244 1.43837 12.9165C1.09587 13.3373 0.944719 13.8691 1.01816 14.395C1.07323 14.7894 1.32033 15.193 1.81452 16C2.30873 16.807 2.55583 17.2106 2.89058 17.4527C3.33692 17.7756 3.90104 17.9181 4.45883 17.8489C4.71344 17.8173 4.97163 17.7186 5.32771 17.5412C5.85107 17.2804 6.47694 17.27 6.9896 17.549C7.50225 17.8281 7.80562 18.3443 7.82773 18.9021C7.84279 19.2815 7.88125 19.5417 7.97953 19.7654C8.19483 20.2554 8.60779 20.6448 9.12754 20.8478C9.51744 21 10.0116 21 11 21C11.9884 21 12.4826 21 12.8725 20.8478C13.3922 20.6448 13.8052 20.2554 14.0204 19.7654C14.1187 19.5417 14.1572 19.2815 14.1723 18.902C14.1944 18.3443 14.4977 17.8281 15.0103 17.549C15.5229 17.2699 16.1488 17.2804 16.6722 17.5412C17.0283 17.7186 17.2865 17.8172 17.541 17.8488C18.0988 17.9181 18.663 17.7756 19.1093 17.4527C19.444 17.2105 19.6912 16.807 20.1853 15.9999C20.6796 15.1929 20.9267 14.7894 20.9818 14.395C21.0552 13.8691 20.904 13.3372 20.5615 12.9164C20.4052 12.7243 20.1854 12.5628 19.8444 12.3608C19.3433 12.0639 19.0207 11.558 19.0207 10.9999C19.0207 10.4418 19.3433 9.9361 19.8444 9.6392C20.1855 9.4371 20.4053 9.2757 20.5616 9.0835C20.9041 8.66273 21.0553 8.13087 20.9819 7.60497C20.9268 7.21055 20.6797 6.80703 20.1854 6C19.6913 5.19297 19.4441 4.78945 19.1094 4.54727C18.6631 4.22436 18.0989 4.08185 17.5411 4.15109C17.2866 4.18269 17.0284 4.28136 16.6722 4.4588C16.1489 4.71959 15.523 4.73002 15.0104 4.45096C14.4977 4.17191 14.1944 3.65566 14.1723 3.09794C14.1572 2.71848 14.1187 2.45833 14.0204 2.23463C13.8052 1.74458 13.3922 1.35523 12.8725 1.15224Z" stroke="#A1AFBF" stroke-width="1.5"/>
</g>
</svg>
