<svg width="22" height="17" viewBox="0 0 22 17" fill="none" xmlns="http://www.w3.org/2000/svg">
<path id="tasks" d="M6.55556 1.5777L21 1.57853M6.55556 8.50081L21 8.50173M6.55556 15.4239L21 15.4248M1.55556 1.57692H1.56667M1.55556 8.5H1.56667M1.55556 15.4231H1.56667M2.11111 1.57692C2.11111 1.89555 1.86238 2.15385 1.55556 2.15385C1.24873 2.15385 1 1.89555 1 1.57692C1 1.2583 1.24873 1 1.55556 1C1.86238 1 2.11111 1.2583 2.11111 1.57692ZM2.11111 8.5C2.11111 8.81858 1.86238 9.07692 1.55556 9.07692C1.24873 9.07692 1 8.81858 1 8.5C1 8.18142 1.24873 7.92308 1.55556 7.92308C1.86238 7.92308 2.11111 8.18142 2.11111 8.5ZM2.11111 15.4231C2.11111 15.7417 1.86238 16 1.55556 16C1.24873 16 1 15.7417 1 15.4231C1 15.1045 1.24873 14.8462 1.55556 14.8462C1.86238 14.8462 2.11111 15.1045 2.11111 15.4231Z" stroke="#A1AFBF" stroke-width="1.5" stroke-linecap="round" stroke-linejoin="round"/>
</svg>
