<svg width="20" height="15" viewBox="0 0 20 15" fill="none" xmlns="http://www.w3.org/2000/svg">
<path id="Vector" d="M18.2949 0.132424C18.2949 0.132424 20.1451 -0.516861 19.9909 1.05998C19.9395 1.70927 19.477 3.98177 19.1172 6.4398L17.8838 13.7211C17.8838 13.7211 17.781 14.7878 16.8559 14.9733C15.9308 15.1588 14.5432 14.324 14.2862 14.1385C14.0807 13.9994 10.4318 11.9123 9.14696 10.892C8.7872 10.6138 8.37605 10.0572 9.19834 9.40795L14.5946 4.77021C15.2113 4.21367 15.8281 2.9151 13.2584 4.49194L6.06339 8.89782C6.06339 8.89782 5.2411 9.36158 3.69934 8.94419L0.358772 8.01664C0.358772 8.01664 -0.874662 7.32098 1.23245 6.62528C6.37177 4.44553 12.6931 2.2194 18.2949 0.132424Z" fill="#5A6E85"/>
</svg>
