<svg width="30" height="30" viewBox="0 0 30 30" fill="none" xmlns="http://www.w3.org/2000/svg">
<path d="M15 30C23.2843 30 30 23.2843 30 15C30 6.71573 23.2843 0 15 0C6.71573 0 0 6.71573 0 15C0 23.2843 6.71573 30 15 30Z" fill="#FFC200"/>
<path fill-rule="evenodd" clip-rule="evenodd" d="M12.0684 19.2354L18.0397 19.2917V25.2572L12.0684 25.2009V19.2354Z" fill="#F9DCA4"/>
<path opacity="0.11" fill-rule="evenodd" clip-rule="evenodd" d="M18.0407 19.2812V20.9347C18.047 21.1235 18.0407 21.3126 18.0218 21.5007C17.996 21.7021 17.3839 21.4696 17.3111 21.689C15.2028 23.3997 12.3387 21.3298 12.0684 20.0468L18.0407 19.2812Z" fill="black"/>
<path fill-rule="evenodd" clip-rule="evenodd" d="M15.0171 5.26709C24.8448 5.26709 21.0147 21.5531 15.0171 21.5531C9.35202 21.5531 5.18939 5.26709 15.0171 5.26709Z" fill="#FFE8BE"/>
<path fill-rule="evenodd" clip-rule="evenodd" d="M9.13345 12.5408C7.76646 13.1374 8.9286 15.9631 9.78879 15.9505C9.43209 14.8449 9.21201 13.6998 9.13345 12.5408Z" fill="#F9DCA4"/>
<path fill-rule="evenodd" clip-rule="evenodd" d="M21.0238 12.5273C22.3903 13.1235 21.2423 15.9633 20.3831 15.9507C20.7351 14.8399 20.9503 13.6903 21.0238 12.5273Z" fill="#F9DCA4"/>
<path fill-rule="evenodd" clip-rule="evenodd" d="M15.0098 5.375C19.0379 5.375 20.7258 8.23909 20.8292 11.5478C20.9709 16.0779 18.2088 21.4445 15.0102 21.4445C11.9811 21.4445 9.14275 15.8945 9.31508 11.3182C9.43547 8.10705 11.0763 5.37549 15.0102 5.37549L15.0098 5.375Z" fill="#FFE8BE"/>
<path fill-rule="evenodd" clip-rule="evenodd" d="M9.50138 14.6631C9.50138 14.6631 9.60672 10.4971 13.3509 10.3388C17.0951 10.1806 17.8864 8.17666 17.8864 8.17666C18.6635 9.81042 19.7314 11.2892 21.0378 12.5408C23.8563 7.23977 18.6252 4.59024 18.6252 4.59024C18.6252 4.59024 18.7393 1.50917 14.9334 1.5582C11.1276 1.60723 11.7689 4.80093 11.7689 4.80093C11.7689 4.80093 6.0203 7.91259 9.50138 14.6631Z" fill="#969696"/>
<path fill-rule="evenodd" clip-rule="evenodd" d="M25.6296 25.5831C25.3946 25.0385 24.7621 23.7137 24.2597 23.3986C22.1247 22.0608 20.3344 21.8671 18.0397 20.8258C18.1553 26.0754 12.1878 26.0064 12.0679 20.6831C9.65331 21.7676 7.42369 22.3642 5.16106 23.738C4.70086 24.0176 4.42902 24.9394 4.23145 25.4409C5.61797 26.8712 7.27554 28.011 9.10739 28.7937C10.9392 29.5764 12.9087 29.9864 14.9007 29.9996C16.8927 30.0129 18.8674 29.6291 20.7095 28.8709C22.5516 28.1126 24.2242 26.9949 25.6296 25.5831Z" fill="#434955"/>
<path fill-rule="evenodd" clip-rule="evenodd" d="M12.0613 20.6865L15.0851 24.7195C13.1773 28.2535 9.37388 27.3846 8.51514 21.9467C10.6064 21.1506 12.0613 20.6865 12.0613 20.6865Z" fill="white"/>
<path fill-rule="evenodd" clip-rule="evenodd" d="M10.0937 13.0854H14.3743C14.4301 13.0854 14.4836 13.1072 14.5235 13.1461C14.5634 13.185 14.5865 13.238 14.5879 13.2937C14.5986 13.4243 14.6 13.5556 14.5923 13.6864H15.4078C15.4002 13.5554 15.4016 13.424 15.4122 13.2932C15.4137 13.2376 15.4369 13.1847 15.4768 13.1459C15.5167 13.1071 15.5701 13.0854 15.6258 13.0854H19.9064C19.9344 13.0854 19.9622 13.091 19.9881 13.1017C20.014 13.1124 20.0376 13.1282 20.0574 13.148C20.0773 13.1678 20.093 13.1914 20.1037 13.2173C20.1145 13.2432 20.12 13.271 20.12 13.299C20.12 13.3058 20.154 15.8015 17.6481 15.8015C16.2103 15.8015 15.685 14.9869 15.4996 14.283H14.5001C14.3146 14.9869 13.7894 15.8015 12.351 15.8015C9.84569 15.8015 9.88015 13.3063 9.88015 13.299C9.88015 13.2425 9.90259 13.1882 9.94254 13.1482C9.98249 13.1081 10.0372 13.0856 10.0937 13.0854Z" fill="#E6E6E6"/>
<path fill-rule="evenodd" clip-rule="evenodd" d="M18.0524 20.6865L15.0718 24.7195C16.9514 28.2535 20.7004 27.3846 21.5475 21.9467C19.4859 21.1506 18.0524 20.6865 18.0524 20.6865Z" fill="white"/>
<path fill-rule="evenodd" clip-rule="evenodd" d="M10.0937 13.0854H14.3743C14.4301 13.0854 14.4836 13.1072 14.5235 13.1461C14.5634 13.185 14.5865 13.238 14.5879 13.2937C14.5986 13.4243 14.6 13.5556 14.5923 13.6864H15.4078C15.4002 13.5554 15.4016 13.424 15.4122 13.2932C15.4137 13.2376 15.4369 13.1847 15.4768 13.1459C15.5167 13.1071 15.5701 13.0854 15.6258 13.0854H19.9064C19.9344 13.0854 19.9622 13.091 19.9881 13.1017C20.014 13.1124 20.0376 13.1282 20.0574 13.148C20.0773 13.1678 20.093 13.1914 20.1037 13.2173C20.1145 13.2432 20.12 13.271 20.12 13.299C20.12 13.3058 20.154 15.8015 17.6481 15.8015C16.2103 15.8015 15.685 14.9869 15.4996 14.283H14.5001C14.3146 14.9869 13.7894 15.8015 12.351 15.8015C9.84569 15.8015 9.88015 13.3063 9.88015 13.299C9.88015 13.2425 9.90259 13.1882 9.94254 13.1482C9.98249 13.1081 10.0372 13.0856 10.0937 13.0854ZM19.6797 13.5126H15.8282C15.8037 13.7597 15.8335 14.0091 15.9157 14.2433C15.9979 14.4775 16.1305 14.6909 16.304 14.8684C16.4775 15.0459 16.6878 15.1832 16.9201 15.2707C17.1525 15.3582 17.4011 15.3937 17.6486 15.3748C17.9049 15.3883 18.1612 15.3506 18.4027 15.2639C18.6442 15.1771 18.866 15.0431 19.0551 14.8697C19.2442 14.6963 19.3968 14.4869 19.5041 14.2538C19.6113 14.0207 19.671 13.7686 19.6797 13.5121V13.5126ZM14.1714 13.5126H10.3204C10.3292 13.769 10.3889 14.0211 10.4962 14.2542C10.6035 14.4872 10.7561 14.6965 10.9452 14.8699C11.1343 15.0433 11.3561 15.1772 11.5976 15.2639C11.839 15.3506 12.0953 15.3883 12.3515 15.3748C12.5991 15.3937 12.8478 15.3582 13.0801 15.2707C13.3125 15.1832 13.5228 15.0458 13.6964 14.8682C13.8699 14.6907 14.0024 14.4772 14.0846 14.243C14.1667 14.0087 14.1965 13.7592 14.1719 13.5121L14.1714 13.5126Z" fill="#434955"/>
<path d="M15.0682 27.4308C15.2931 27.4308 15.4755 27.2485 15.4755 27.0235C15.4755 26.7986 15.2931 26.6162 15.0682 26.6162C14.8432 26.6162 14.6609 26.7986 14.6609 27.0235C14.6609 27.2485 14.8432 27.4308 15.0682 27.4308Z" fill="#E6E6E6"/>
<path d="M15.0682 28.945C15.2932 28.945 15.4755 28.7626 15.4755 28.5377C15.4755 28.3127 15.2932 28.1304 15.0682 28.1304C14.8433 28.1304 14.6609 28.3127 14.6609 28.5377C14.6609 28.7626 14.8433 28.945 15.0682 28.945Z" fill="#E6E6E6"/>
</svg>
