<svg width="30" height="30" viewBox="0 0 30 30" fill="none" xmlns="http://www.w3.org/2000/svg">
<path d="M15 29.9999C23.2843 29.9999 30 23.2842 30 14.9999C30 6.7157 23.2843 0 15 0C6.71573 0 0 6.7157 0 14.9999C0 23.2842 6.71573 29.9999 15 29.9999Z" fill="#58B0E0"/>
<path fill-rule="evenodd" clip-rule="evenodd" d="M11.2888 18.7769L19.0107 18.8477V26.4215L11.2888 26.3502V18.7769Z" fill="#302E33"/>
<path fill-rule="evenodd" clip-rule="evenodd" d="M25.9602 25.2392C24.5586 26.7433 22.8619 27.9424 20.9761 28.7615C19.0903 29.5806 17.056 30.0022 15 29.9998C14.3773 29.9998 13.7553 29.9614 13.1373 29.8848C11.2423 29.6132 9.40872 29.0147 7.71839 28.1159C6.29168 27.3219 5.00352 26.3013 3.9043 25.094L4.5276 23.5892L11.2873 20.5736C11.2873 22.7751 11.9233 25.4377 14.8985 25.4828C18.5733 25.5377 19.0102 22.8251 19.0102 20.5557L25.2189 23.6052L25.9602 25.2392Z" fill="#857A6E"/>
<path fill-rule="evenodd" clip-rule="evenodd" d="M15.2728 25.4829C13.6505 22.8266 10.7155 22.431 9.75871 22.2791C7.12764 21.8616 2.69073 20.2014 5.60142 17.5606C10.8272 12.8208 8.94997 6.86548 15.0738 6.86548C21.6126 6.86548 19.3811 12.8208 24.6068 17.5606C27.518 20.2014 23.0811 21.8616 20.449 22.2791C19.3995 22.3845 18.3877 22.7278 17.4908 23.283C16.5938 23.8381 15.8353 24.5905 15.2728 25.4829Z" fill="#302E33"/>
<path opacity="0.18" fill-rule="evenodd" clip-rule="evenodd" d="M19.4 20.5107C18.8539 22.4573 17.4544 23.6161 15.2262 23.5238C13.3136 23.4447 11.684 22.3603 11.2893 20.5122L19.4 20.5107Z" fill="black"/>
<path fill-rule="evenodd" clip-rule="evenodd" d="M15.1113 4.09326C25.4419 4.09326 21.4157 21.2127 15.1113 21.2127C9.15643 21.2127 4.78068 4.09326 15.1113 4.09326Z" fill="#FFE8BE"/>
<path fill-rule="evenodd" clip-rule="evenodd" d="M8.91501 11.6724C7.42472 12.3228 8.69171 15.4039 9.62958 15.3898C9.2406 14.1845 9.00063 12.936 8.91501 11.6724Z" fill="#F9DCA4"/>
<path fill-rule="evenodd" clip-rule="evenodd" d="M21.4272 11.6724C22.9175 12.3224 21.6505 15.4039 20.7131 15.3898C21.1019 14.1844 21.3417 12.936 21.4272 11.6724Z" fill="#F9DCA4"/>
<path fill-rule="evenodd" clip-rule="evenodd" d="M9.27808 12.4787C7.90429 10.0719 7.92711 7.92772 8.61692 6.74228C9.61109 5.03354 11.0062 4.95199 11.197 4.54956C13.1509 0.433545 23.2548 3.55539 22.833 9.93306C22.627 9.50746 22.3795 9.10323 22.0941 8.72626C22.0941 8.72626 22.0577 11.1491 21.3966 12.1034C20.6005 12.3287 14.0854 12.2195 11.6621 7.27432C9.7174 8.37529 9.20575 10.6797 9.27857 12.4782L9.27808 12.4787Z" fill="#969696"/>
<path fill-rule="evenodd" clip-rule="evenodd" d="M15.1215 22.5936C13.8302 22.6043 7.54036 20.6412 9.00008 9.95044C9.00008 9.95044 9.31561 14.764 10.3472 16.1582C11.018 17.065 11.6214 17.4058 12.2015 16.5203C12.8074 15.598 14.1171 14.8344 15.1326 15.7063C15.9758 14.8082 17.486 15.6034 18.086 16.5203C18.6661 17.4053 19.2705 17.0655 19.9414 16.1582C20.9729 14.764 21.1967 10.1116 21.1967 10.1116C22.8744 21.5679 16.4127 22.6043 15.1215 22.5936Z" fill="#969696"/>
<path fill-rule="evenodd" clip-rule="evenodd" d="M12.8772 17.8651C13.468 17.2676 14.2564 16.9059 15.0947 16.8477C15.9202 16.9209 16.6937 17.2815 17.2806 17.8666C16.8981 18.1214 14.4291 18.7098 12.8772 17.8651Z" fill="#FFE8BE"/>
<path fill-rule="evenodd" clip-rule="evenodd" d="M12.9181 24.9013C11.6899 24.1367 10.3524 23.5636 8.95158 23.2018C6.63215 22.8338 2.43554 22.4649 3.4802 18.3057C5.83652 8.92218 9.15061 1.79015 15.2705 1.8785C21.5016 1.96782 24.5376 9.5484 26.8434 18.3178C27.7677 21.8314 23.5473 22.8387 21.257 23.2013C19.8998 23.4816 18.6136 24.034 17.4759 24.8251C14.0958 27.1382 16.5963 27.1062 12.9181 24.9013ZM15.273 25.4829C15.8354 24.5905 16.594 23.8381 17.4909 23.2829C18.3879 22.7277 19.3996 22.3844 20.4492 22.279C23.0812 21.8615 27.5181 20.2013 24.607 17.5605C19.3812 12.8207 21.6133 6.86539 15.0739 6.86539C8.95012 6.86539 10.8273 12.8207 5.60157 17.5605C2.69039 20.2013 7.1273 21.8615 9.75886 22.279C10.7152 22.4309 13.6501 22.8261 15.273 25.4829Z" fill="#7D7062"/>
<path fill-rule="evenodd" clip-rule="evenodd" d="M11.7485 24.3753C11.7485 24.3753 14.6553 25.9559 15.432 28.2549C16.2136 25.769 19.1345 24.2126 19.1345 24.2126C19.1345 24.2126 16.0534 25.4029 15.3884 26.9583C14.916 26.1224 14.0738 25.3078 11.7485 24.3753Z" fill="#302E33"/>
</svg>
