<svg width="30" height="30" viewBox="0 0 30 30" fill="none" xmlns="http://www.w3.org/2000/svg">
<path fill-rule="evenodd" clip-rule="evenodd" d="M15.1114 4.09326C25.442 4.09326 21.4163 21.2127 15.1114 21.2127C9.157 21.2127 4.78077 4.09326 15.1114 4.09326Z" fill="#FFE8BE"/>
<path d="M15 30C23.2843 30 30 23.2843 30 15C30 6.71573 23.2843 0 15 0C6.71573 0 0 6.71573 0 15C0 23.2843 6.71573 30 15 30Z" fill="#A9CF54"/>
<path d="M9.229 10.542H21.1242V23.442H9.22949L9.229 10.542Z" fill="#302E33"/>
<path fill-rule="evenodd" clip-rule="evenodd" d="M12.0117 18.7769L18.2889 18.8356V25.1065L12.0117 25.0477V18.7769Z" fill="#F9DCA4"/>
<path opacity="0.11" fill-rule="evenodd" clip-rule="evenodd" d="M18.2897 18.8246V20.5625C18.2897 20.7067 18.2887 20.6174 18.2887 20.8115C18.3073 20.9495 18.2885 21.09 18.2343 21.2183C16.1134 23.2397 12.5945 22.1805 12.0547 18.7275L18.2897 18.8246Z" fill="black"/>
<path fill-rule="evenodd" clip-rule="evenodd" d="M25.6296 25.5831C24.3111 22.5312 21.3029 22.237 18.2888 20.8113C18.2888 23.4394 12.0111 23.2283 12.0111 20.6831C9.30816 21.9064 5.39456 22.4889 4.23145 25.4409C5.61797 26.8712 7.27554 28.011 9.10739 28.7937C10.9392 29.5764 12.9087 29.9864 14.9007 29.9996C16.8927 30.0129 18.8674 29.6291 20.7095 28.8709C22.5516 28.1126 24.2242 26.9949 25.6296 25.5831Z" fill="#498BD9"/>
<path fill-rule="evenodd" clip-rule="evenodd" d="M21.0635 12.3979C22.5004 13.0242 21.1241 15.5703 20.4309 15.3232C19.3135 14.9242 20.996 13.5834 21.0635 12.3975V12.3979Z" fill="#F9DCA4"/>
<path fill-rule="evenodd" clip-rule="evenodd" d="M15.1041 4.20679C19.3381 4.20679 21.1124 7.21651 21.2211 10.6956C21.3702 15.4578 18.4663 21.0986 15.1046 21.0986C11.9201 21.0986 8.93664 15.2646 9.1177 10.4539C9.24392 7.07864 10.9692 4.20679 15.1041 4.20679Z" fill="#FFE8BE"/>
<path fill-rule="evenodd" clip-rule="evenodd" d="M19.2896 9.81348C19.2896 9.81348 16.7833 18.4349 6.95947 15.5601C9.41239 14.2237 9.13812 12.2727 8.96482 9.81348H19.2896Z" fill="#464449"/>
<path fill-rule="evenodd" clip-rule="evenodd" d="M16.3423 9.97473C16.3423 9.97473 17.7656 14.5354 22.67 14.8864C22.1062 14.4364 21.6336 13.8828 21.2777 13.2553C21.7089 13.452 22.1921 13.5044 22.6554 13.4048C21.4632 12.5107 21.1661 11.784 21.3666 10.0602C21.5671 8.33637 16.3423 9.97473 16.3423 9.97473Z" fill="#464449"/>
<path d="M15.1771 13.2899C19.3531 13.2899 22.7384 12.5059 22.7384 11.5389C22.7384 10.5718 19.3531 9.78784 15.1771 9.78784C11.0011 9.78784 7.61572 10.5718 7.61572 11.5389C7.61572 12.5059 11.0011 13.2899 15.1771 13.2899Z" fill="#58B0E0"/>
<path fill-rule="evenodd" clip-rule="evenodd" d="M13.093 3.21509H17.261C18.3548 3.21829 19.4029 3.65418 20.1763 4.42757C20.9498 5.20095 21.3858 6.24898 21.3892 7.34277V10.5418H8.96484V7.34277C8.96817 6.24898 9.40419 5.20095 10.1777 4.42757C10.9511 3.65418 11.9992 3.21829 13.093 3.21509Z" fill="#2881BB"/>
<path fill-rule="evenodd" clip-rule="evenodd" d="M12.8179 6.40283H13.8009L14.5135 7.82177V6.95283C14.5166 6.90586 14.5123 6.8587 14.5009 6.81303C14.4927 6.7886 14.476 6.76794 14.4538 6.75478C14.4174 6.74064 14.3782 6.735 14.3392 6.73827H14.2208V6.40283H15.2237V6.73827H15.113C15.0724 6.73581 15.0318 6.74245 14.9941 6.75769C14.9721 6.76884 14.9547 6.78717 14.9446 6.80963C14.9328 6.85624 14.9282 6.90436 14.931 6.95235V8.83391H14.4286L13.5281 7.04167V8.29604C13.525 8.3424 13.5294 8.38896 13.5412 8.43391C13.5508 8.45453 13.5672 8.47118 13.5878 8.48099C13.6252 8.49477 13.665 8.50056 13.7048 8.49798H13.8213V8.83391H12.8179V8.49847H12.9218C12.9618 8.5011 13.0021 8.49599 13.0402 8.48342C13.0628 8.47269 13.0809 8.45452 13.0917 8.43197C13.1061 8.39727 13.1126 8.35978 13.1106 8.32226V6.92662C13.1128 6.88656 13.107 6.84646 13.0936 6.80866C13.0841 6.78599 13.0676 6.76694 13.0465 6.75429C13.0153 6.74091 12.9813 6.73525 12.9475 6.73778H12.8179V6.40283ZM15.3193 6.40283H16.5256V6.73827H16.4354C16.3948 6.73439 16.3539 6.73936 16.3155 6.75283C16.3073 6.75761 16.3007 6.76464 16.2964 6.77307C16.2921 6.7815 16.2903 6.79099 16.2912 6.80041C16.2983 6.8497 16.3177 6.89643 16.3475 6.93633L16.6674 7.46594L17.0232 6.91691C17.0411 6.89061 17.0585 6.86407 17.0757 6.8373C17.0802 6.82453 17.0825 6.81106 17.0824 6.79749C17.0832 6.7889 17.0818 6.78025 17.0783 6.77235C17.0748 6.76446 17.0694 6.75757 17.0625 6.75235C17.0328 6.73981 17.0004 6.73497 16.9684 6.73827H16.8436V6.40283H17.8106V6.73827C17.7495 6.72799 17.6867 6.73859 17.6324 6.76836C17.578 6.79812 17.5353 6.84532 17.5111 6.90235L16.865 7.8475V8.28148C16.8616 8.33178 16.8665 8.38229 16.8795 8.43099C16.8895 8.45366 16.9077 8.47169 16.9305 8.48148C16.9762 8.49557 17.0241 8.50116 17.0718 8.49798H17.1577V8.83391H15.9722V8.49847H16.0358C16.0892 8.50226 16.1428 8.49651 16.1941 8.48148C16.218 8.46989 16.237 8.45007 16.2475 8.42565C16.2627 8.37453 16.2686 8.3211 16.265 8.26789V7.88779L15.6193 6.90235C15.5863 6.84412 15.5401 6.79442 15.4844 6.7572C15.4309 6.74113 15.375 6.73472 15.3193 6.73827V6.40283Z" fill="white"/>
<path fill-rule="evenodd" clip-rule="evenodd" d="M14.7622 22.6631L15.3743 22.6689V24.3437H14.7622V22.6631Z" fill="#E6E6E6"/>
<path opacity="0.33" d="M14.7495 29.9951L14.7746 24.3437L15.3872 24.3464L15.3621 29.9978L14.7495 29.9951Z" fill="white"/>
<path fill-rule="evenodd" clip-rule="evenodd" d="M4.41064 25.6238C5.04346 24.3546 6.09145 23.34 7.38056 22.7486C9.39804 21.8811 12.0349 21.0083 12.0427 21.0059L12.198 21.3962C12.1908 21.3986 9.54901 22.2651 7.54366 23.1272C6.31529 23.7137 5.31668 24.6919 4.70482 25.9078L4.41064 25.6238Z" fill="#E6E6E6"/>
<path fill-rule="evenodd" clip-rule="evenodd" d="M25.4516 25.7594C24.819 24.4908 23.7713 23.4769 22.4827 22.8861C20.4652 22.0186 18.2239 21.2793 18.2167 21.2773L18.0264 21.6545C18.0336 21.657 20.3147 22.4031 22.3196 23.2652C23.5464 23.8497 24.544 24.8255 25.1555 26.039L25.3376 25.8691L25.4516 25.7594Z" fill="#E6E6E6"/>
</svg>
