<svg width="30" height="30" viewBox="0 0 30 30" fill="none" xmlns="http://www.w3.org/2000/svg">
<path fill-rule="evenodd" clip-rule="evenodd" d="M15.1111 4.09326C25.4418 4.09326 21.4155 21.2127 15.1111 21.2127C9.15676 21.2127 4.78053 4.09326 15.1111 4.09326Z" fill="#FFE8BE"/>
<path d="M15 30C23.2843 30 30 23.2843 30 15C30 6.71573 23.2843 0 15 0C6.71573 0 0 6.71573 0 15C0 23.2843 6.71573 30 15 30Z" fill="#58B0E0"/>
<path fill-rule="evenodd" clip-rule="evenodd" d="M22.081 9.70215L7.91931 9.7871C7.91931 9.7871 8.42805 17.626 6.64795 20.0833H23.9786C23.532 19.4279 22.3509 19.2167 22.081 9.70215Z" fill="#60350A"/>
<path fill-rule="evenodd" clip-rule="evenodd" d="M8.80347 22.1356L12.3015 20.5885L17.9083 20.4429L21.5103 22.3346L18.9098 27.7788L15.2142 29.7633L11.3913 27.6516L8.80347 22.1356Z" fill="#D5E1ED"/>
<path fill-rule="evenodd" clip-rule="evenodd" d="M12.0117 18.7769L18.2889 18.8176V23.1618L12.0117 23.1206V18.7769Z" fill="#F9DCA4"/>
<path opacity="0.11" fill-rule="evenodd" clip-rule="evenodd" d="M18.2899 18.8246V20.5625C18.2967 20.7611 18.2902 20.9599 18.2705 21.1576C18.2412 21.3769 18.1903 21.5926 18.1185 21.8018C15.9972 23.8237 12.5947 22.1805 12.0554 18.7275L18.2899 18.8246Z" fill="black"/>
<path fill-rule="evenodd" clip-rule="evenodd" d="M25.6296 25.5831C24.2242 26.9949 22.5516 28.1126 20.7095 28.8709C18.8674 29.6292 16.8927 30.0129 14.9007 29.9996C12.9087 29.9864 10.9392 29.5765 9.10739 28.7937C7.27554 28.011 5.61797 26.8712 4.23145 25.4409L4.82417 23.937L9.24311 21.936C10.8266 24.839 12.5489 27.5302 15.2223 29.4385C17.6422 27.4242 19.6023 24.9148 20.9708 22.0792L24.9242 23.9496L25.6296 25.5831Z" fill="#434955"/>
<path fill-rule="evenodd" clip-rule="evenodd" d="M9.27681 11.7393C7.84088 12.3655 9.06224 15.3364 9.96613 15.3232C9.59106 14.1612 9.35957 12.9576 9.27681 11.7393Z" fill="#F9DCA4"/>
<path fill-rule="evenodd" clip-rule="evenodd" d="M21.12 11.7388C22.5569 12.366 21.335 15.3364 20.4312 15.3232C20.8061 14.161 21.0375 12.9572 21.12 11.7388Z" fill="#F9DCA4"/>
<path fill-rule="evenodd" clip-rule="evenodd" d="M15.1039 4.20679C19.3379 4.20679 21.1122 7.21651 21.2209 10.6956C21.3699 15.4578 18.466 21.0986 15.1044 21.0986C11.9199 21.0986 8.93639 15.2646 9.11746 10.4539C9.24367 7.07864 10.9689 4.20679 15.1039 4.20679Z" fill="#FFE8BE"/>
<path fill-rule="evenodd" clip-rule="evenodd" d="M16.2132 12.1278C16.9717 11.6644 17.873 11.4931 18.7486 11.6457H18.7511C21.253 11.9516 21.2918 12.7292 21.0486 12.9084C20.8858 13.0429 20.7556 13.2125 20.6676 13.4045C20.6132 13.9113 20.4381 14.3978 20.1569 14.8229C19.9696 15.1163 19.7235 15.3675 19.434 15.5607C19.1445 15.7539 18.8181 15.8849 18.4753 15.9453C18.3938 15.9584 18.3103 15.9686 18.2248 15.9734C17.8908 15.9974 17.5559 15.9414 17.2478 15.8103C16.9397 15.6791 16.6672 15.4764 16.453 15.2191C16.1432 14.8553 15.9002 14.4395 15.7355 13.9909V13.9923C15.7355 13.9923 15.3486 13.1982 14.7297 13.937C14.5634 14.4054 14.3134 14.8396 13.9918 15.2186C13.7775 15.476 13.505 15.6788 13.1968 15.81C12.8886 15.9413 12.5536 15.9973 12.2195 15.9734C12.1356 15.9682 12.052 15.9588 11.969 15.9453C11.6263 15.8848 11.2998 15.7539 11.0104 15.5607C10.7209 15.3675 10.4747 15.1163 10.2874 14.8229C10.0063 14.3979 9.83123 13.9116 9.77676 13.405C9.69297 13.2123 9.56491 13.0422 9.40297 12.9084C9.16026 12.7288 9.19666 11.9506 11.6986 11.6448H11.6996C12.5789 11.4929 13.4834 11.6672 14.2433 12.1351L14.2428 12.1346L14.2443 12.1355L14.3486 12.1991C14.6396 12.3479 14.964 12.4194 15.2905 12.4069C15.6171 12.3943 15.935 12.298 16.2137 12.1273L16.2132 12.1278ZM13.9452 12.4375C13.4941 12.1769 12.9865 12.0296 12.4659 12.0082C11.9454 11.9869 11.4274 12.092 10.9564 12.3147C10.2229 12.6477 9.99909 12.8826 10.2836 13.8501C10.3606 14.114 10.4771 14.3648 10.6292 14.5938C10.8008 14.873 11.0371 15.1068 11.3181 15.2753C11.5992 15.4439 11.9167 15.5423 12.2438 15.5623C12.5155 15.581 12.7879 15.5347 13.0382 15.4274C13.2886 15.32 13.5098 15.1546 13.6836 14.9448C13.9714 14.6043 14.195 14.2145 14.3438 13.7943C14.6734 12.9302 14.7622 12.8899 13.9457 12.4375H13.9452ZM19.2593 12.219C18.7936 12.0441 18.2941 11.9779 17.7989 12.0254C17.3037 12.0729 16.8259 12.233 16.402 12.4933C15.6554 12.9355 15.7913 13.0093 16.1214 13.8477C16.2683 14.2481 16.4845 14.6195 16.7603 14.9448C16.9341 15.1546 17.1554 15.3201 17.4059 15.4275C17.6563 15.5348 17.9287 15.581 18.2006 15.5623C18.2705 15.5581 18.3402 15.5503 18.4093 15.539C18.6963 15.4873 18.9694 15.3766 19.2114 15.2139C19.4534 15.0512 19.659 14.8401 19.8151 14.5938C19.9586 14.3778 20.0705 14.1424 20.1472 13.8948C20.488 12.8025 20.1841 12.5593 19.2598 12.2195L19.2593 12.219Z" fill="#464449"/>
<path fill-rule="evenodd" clip-rule="evenodd" d="M8.68433 12.4312C8.68433 12.1215 9.162 12.0011 9.46006 13.8598C9.70076 13.1006 9.8564 12.317 9.92414 11.5234C10.4882 11.6326 11.03 12.9059 10.8596 14.0225C12.3965 13.6453 16.3465 11.2618 17.631 8.03991C20.9184 9.9336 20.9004 13.9108 20.9004 13.9108C20.9004 13.9108 21.0742 12.9885 21.1713 12.204C21.2033 11.9428 21.3135 11.8482 21.5586 12.1006C23.3363 8.41904 20.5339 2.79135 15.1926 2.70397C7.8586 2.58455 6.92559 10.5263 8.68482 12.4317L8.68433 12.4312Z" fill="#8A5C42"/>
<path fill-rule="evenodd" clip-rule="evenodd" d="M12.0218 20.5977C12.7888 21.7406 13.882 22.6263 15.1592 23.1394L13.1165 26.1219L10.2441 21.3744L12.0218 20.5977Z" fill="white"/>
<path fill-rule="evenodd" clip-rule="evenodd" d="M18.2922 20.5977C17.5252 21.7406 16.432 22.6262 15.1548 23.1394L17.198 26.1219L20.0878 21.4287L18.2922 20.5977Z" fill="white"/>
<path d="M15.1568 25.923C15.3818 25.923 15.5641 25.7407 15.5641 25.5157C15.5641 25.2908 15.3818 25.1084 15.1568 25.1084C14.9319 25.1084 14.7495 25.2908 14.7495 25.5157C14.7495 25.7407 14.9319 25.923 15.1568 25.923Z" fill="#434955"/>
<path d="M15.1568 27.7336C15.3818 27.7336 15.5641 27.5512 15.5641 27.3263C15.5641 27.1013 15.3818 26.9189 15.1568 26.9189C14.9319 26.9189 14.7495 27.1013 14.7495 27.3263C14.7495 27.5512 14.9319 27.7336 15.1568 27.7336Z" fill="#434955"/>
<path fill-rule="evenodd" clip-rule="evenodd" d="M20.387 12.0083C21.253 12.3539 21.2214 12.7758 21.0506 12.902C20.8878 13.0365 20.7575 13.2061 20.6695 13.3981C20.6316 13.7489 20.5361 14.091 20.387 14.4107V12.0083ZM9.9651 14.1826C9.87031 13.9301 9.80768 13.6667 9.77869 13.3986C9.69494 13.2059 9.56687 13.0358 9.40491 12.902C9.24131 12.7811 9.20442 12.3874 9.9651 12.0505V14.1826Z" fill="#464449"/>
</svg>
