<svg width="30" height="30" viewBox="0 0 30 30" fill="none" xmlns="http://www.w3.org/2000/svg">
<path d="M15 29.9858C23.2843 29.9858 30 23.2733 30 14.9929C30 6.71256 23.2843 0 15 0C6.71573 0 0 6.71256 0 14.9929C0 23.2733 6.71573 29.9858 15 29.9858Z" fill="#3DBC93"/>
<path fill-rule="evenodd" clip-rule="evenodd" d="M11.2888 18.7678L19.0107 18.8265V25.0945L11.2888 25.0358V18.7678Z" fill="#F9DCA4"/>
<path opacity="0.11" fill-rule="evenodd" clip-rule="evenodd" d="M19.0122 18.8153V20.5524C19.0109 20.7441 18.995 20.9355 18.9646 21.1249C18.9264 21.3586 18.8621 21.5873 18.7729 21.8066C16.1641 23.827 12.0064 22.1696 11.3428 18.7183L19.0122 18.8153Z" fill="black"/>
<path fill-rule="evenodd" clip-rule="evenodd" d="M15.1114 4.09131C25.442 4.09131 21.4158 21.2027 15.1114 21.2027C9.157 21.2027 4.78077 4.09131 15.1114 4.09131Z" fill="#FFE8BE"/>
<path fill-rule="evenodd" clip-rule="evenodd" d="M8.91469 11.6675C7.4251 12.3172 8.69149 15.3968 9.62892 15.3832C9.24008 14.1783 9.00022 12.9307 8.91469 11.6675Z" fill="#F9DCA4"/>
<path fill-rule="evenodd" clip-rule="evenodd" d="M21.4245 11.6672C22.914 12.3169 21.6501 15.3966 20.7131 15.3825C21.1009 14.1777 21.3398 12.93 21.4245 11.6672Z" fill="#F9DCA4"/>
<path fill-rule="evenodd" clip-rule="evenodd" d="M21.4191 11.7274C21.4191 11.7274 25.2832 6.00922 20.1395 3.80201C19.4955 2.77817 18.5457 1.9827 17.4245 1.52815C16.3033 1.07361 15.0674 0.983025 13.8919 1.26922C11.0559 1.84613 10.0021 3.25081 10.0021 3.25081C10.0021 3.25081 7.31758 5.68365 4.93408 5.73363C5.8226 6.35842 6.89872 6.65952 7.98264 6.58662C7.65642 7.40177 7.02875 10.085 8.94817 11.8531C11.0686 10.4615 12.8375 7.73996 12.8375 7.73996C12.8375 7.73996 13.3142 9.32029 12.938 10.0981C14.3355 9.83304 15.6522 9.24647 16.7836 8.38481C18.0176 7.39692 18.6734 6.29986 19.3613 6.28579C20.9419 6.25231 21.4065 11.0117 21.4196 11.7279L21.4191 11.7274Z" fill="#ECBE6A"/>
<path fill-rule="evenodd" clip-rule="evenodd" d="M25.9496 25.2416C24.55 26.7448 22.8553 27.9433 20.9712 28.7621C19.0872 29.5808 17.0544 30.0023 15 30C14.378 30 13.7566 29.9616 13.1393 29.8851C11.2463 29.6135 9.41485 29.0152 7.72671 28.117C6.30124 27.3232 5.01438 26.3031 3.9165 25.0965L4.53884 23.5924L11.2913 20.5783C11.5947 22.3847 15.0806 24.5448 15.0806 24.5448C15.0806 24.5448 18.5821 22.8893 19.0064 20.5608L25.2088 23.6084L25.9496 25.2416Z" fill="#498BD9"/>
<mask id="mask0_559_38908" style="mask-type:luminance" maskUnits="userSpaceOnUse" x="3" y="20" width="23" height="10">
<path fill-rule="evenodd" clip-rule="evenodd" d="M25.9496 25.2416C24.55 26.7448 22.8553 27.9433 20.9712 28.7621C19.0872 29.5808 17.0544 30.0023 15 30C14.378 30 13.7566 29.9616 13.1393 29.8851C11.2463 29.6135 9.41485 29.0152 7.72671 28.117C6.30124 27.3232 5.01438 26.3031 3.9165 25.0965L4.53884 23.5924L11.2913 20.5783C11.5947 22.3847 15.0806 24.5448 15.0806 24.5448C15.0806 24.5448 18.5821 22.8893 19.0064 20.5608L25.2088 23.6084L25.9496 25.2416Z" fill="white"/>
</mask>
<g mask="url(#mask0_559_38908)">
<path fill-rule="evenodd" clip-rule="evenodd" d="M6.85059 22.5602L10.1584 21.0842L15.1142 27.8665L20.1278 21.1036L23.0157 22.4773V32.1975H6.85059V22.5602Z" fill="#545F69"/>
<mask id="mask1_559_38908" style="mask-type:luminance" maskUnits="userSpaceOnUse" x="6" y="21" width="18" height="12">
<path fill-rule="evenodd" clip-rule="evenodd" d="M6.85059 22.5602L10.1584 21.0842L15.1142 27.8665L20.1278 21.1036L23.0157 22.4773V32.1975H6.85059V22.5602Z" fill="white"/>
</mask>
<g mask="url(#mask1_559_38908)">
<path fill-rule="evenodd" clip-rule="evenodd" d="M18.3448 20.8062H18.7001V31.1809H18.3448V20.8062ZM11.1724 20.8062H11.5273V31.1809H11.1729V20.8062H11.1724ZM9.72534 20.8062H10.0802V31.1809H9.72534V20.8062ZM8.29621 20.8062H8.65107V31.1809H8.2967L8.29621 20.8062ZM6.84912 20.8062H7.20398V31.1809H6.84912V20.8062ZM16.9016 20.8062H17.2564V31.1809H16.9016V20.8062ZM15.4545 20.8062H15.8093V31.1809H15.4545V20.8062ZM14.0254 20.8062H14.3802V31.1809H14.0254V20.8062ZM12.5783 20.8062H12.9331V31.1809H12.5783V20.8062ZM22.6681 20.8062H23.0234V31.1809H22.6681V20.8062ZM21.2215 20.8062H21.5759V31.1809H21.2215V20.8062ZM19.7924 20.8062H20.1467V31.1809H19.7924V20.8062Z" fill="#434955"/>
</g>
</g>
<path fill-rule="evenodd" clip-rule="evenodd" d="M11.2938 20.0247L15.0812 24.5449L12.0205 26.2688L9.6792 21.13L11.2938 20.0247Z" fill="#58B0E0"/>
<path fill-rule="evenodd" clip-rule="evenodd" d="M19.0075 20.1118L15.0813 24.5447L18.2454 26.2686L20.5643 21.0677L19.0075 20.1118Z" fill="#58B0E0"/>
<path fill-rule="evenodd" clip-rule="evenodd" d="M10.5033 11.2363H13.6179C13.7188 11.2363 13.8187 11.2562 13.9119 11.2948C14.0051 11.3334 14.0898 11.3901 14.1611 11.4615V11.4624C14.2324 11.5335 14.289 11.618 14.3277 11.711C14.3663 11.804 14.3863 11.9037 14.3863 12.0044V13.4081C14.3861 13.6118 14.305 13.807 14.161 13.951C14.0169 14.0949 13.8216 14.176 13.6179 14.1762H10.5033C10.4026 14.176 10.3029 14.156 10.21 14.1173C10.117 14.0786 10.0326 14.0219 9.96157 13.9506H9.96059C9.88922 13.8794 9.83259 13.7949 9.79394 13.7018C9.75529 13.6087 9.73538 13.5089 9.73535 13.4081V12.0044C9.73542 11.9037 9.75535 11.804 9.794 11.711C9.83264 11.618 9.88926 11.5335 9.96059 11.4624L9.96157 11.4615C10.0326 11.3902 10.1171 11.3336 10.21 11.295C10.303 11.2564 10.4026 11.2364 10.5033 11.2363ZM13.6179 11.6488H10.5033C10.4092 11.6489 10.319 11.6863 10.2523 11.7526L10.2519 11.7536C10.1855 11.8202 10.1482 11.9104 10.148 12.0044V13.4081C10.148 13.4547 10.1572 13.5009 10.1751 13.544C10.193 13.587 10.2193 13.6261 10.2523 13.659C10.319 13.7255 10.4092 13.763 10.5033 13.7633H13.6179C13.712 13.7629 13.8022 13.7254 13.8687 13.6588C13.9353 13.5923 13.9728 13.5022 13.9732 13.4081V12.0044C13.9732 11.9102 13.9359 11.8198 13.8693 11.7531C13.8364 11.72 13.7972 11.6938 13.754 11.6759C13.7109 11.658 13.6646 11.6487 13.6179 11.6488Z" fill="#464449"/>
<path fill-rule="evenodd" clip-rule="evenodd" d="M16.7709 11.2363H19.8855C19.9863 11.2364 20.0861 11.2563 20.1792 11.2949C20.2724 11.3335 20.357 11.3901 20.4282 11.4615V11.4624C20.4996 11.5335 20.5563 11.618 20.595 11.711C20.6338 11.804 20.6538 11.9037 20.6539 12.0044V13.4081C20.6537 13.6118 20.5726 13.807 20.4286 13.951C20.2845 14.0949 20.0892 14.176 19.8855 14.1762H16.7709C16.6701 14.1761 16.5703 14.156 16.4773 14.1173C16.3843 14.0786 16.2998 14.022 16.2287 13.9506L16.2282 13.9496C16.0841 13.8062 16.0029 13.6114 16.0024 13.4081V12.0044C16.0026 11.9037 16.0226 11.804 16.0613 11.711C16.1001 11.618 16.1568 11.5335 16.2282 11.4624L16.2291 11.462C16.3727 11.3179 16.5675 11.2368 16.7709 11.2363ZM19.8855 11.6488H16.7709C16.7243 11.6487 16.6781 11.6579 16.6351 11.6757C16.592 11.6935 16.5529 11.7196 16.5199 11.7526L16.5194 11.7536C16.4864 11.7865 16.4603 11.8256 16.4425 11.8686C16.4246 11.9117 16.4155 11.9578 16.4156 12.0044V13.4081C16.4155 13.4547 16.4247 13.5008 16.4425 13.5439C16.4603 13.5869 16.4865 13.626 16.5194 13.659L16.5199 13.6595C16.5529 13.6924 16.592 13.7186 16.6351 13.7364C16.6781 13.7542 16.7243 13.7633 16.7709 13.7633H19.8855C19.9796 13.7629 20.0697 13.7254 20.1363 13.6588C20.2029 13.5923 20.2404 13.5022 20.2408 13.4081V12.0044C20.2408 11.9102 20.2034 11.8198 20.1369 11.7531C20.104 11.7201 20.0644 11.6938 20.0213 11.6759C19.9783 11.658 19.9321 11.6488 19.8855 11.6488Z" fill="#464449"/>
<path d="M14.2793 11.8906H16.1458V12.3157H14.2793V11.8906Z" fill="#464449"/>
</svg>
