<svg width="30" height="30" viewBox="0 0 30 30" fill="none" xmlns="http://www.w3.org/2000/svg">
<path d="M15 29.9987C23.2843 29.9987 30 23.2832 30 14.9993C30 6.71543 23.2843 0 15 0C6.71573 0 0 6.71543 0 14.9993C0 23.2832 6.71573 29.9987 15 29.9987Z" fill="#9F82BB"/>
<path fill-rule="evenodd" clip-rule="evenodd" d="M11.2888 18.7759L19.0107 18.8346V25.1052L11.2888 25.0465V18.7759Z" fill="#F9DCA4"/>
<path fill-rule="evenodd" clip-rule="evenodd" d="M25.9602 25.2385C24.5586 26.7426 22.8619 27.9416 20.9761 28.7606C19.0903 29.5797 17.056 30.0013 15 29.999C13.4809 29.9956 11.9709 29.7662 10.5194 29.3184C7.98079 28.5173 5.69893 27.0598 3.90479 25.0933L4.5276 23.5885L11.2873 20.5731C11.2873 22.7745 12.0247 24.0002 15 24.0453C18.6747 24.1002 19.0102 22.8245 19.0102 20.5552L25.2189 23.6046L25.9602 25.2385Z" fill="white"/>
<path opacity="0.11" fill-rule="evenodd" clip-rule="evenodd" d="M19.0127 18.8234V20.5612C19.0127 20.7054 19.0108 20.9505 18.9986 21.1791C16.9816 23.878 12.052 22.4155 11.3428 18.7263L19.0127 18.8234Z" fill="black"/>
<path fill-rule="evenodd" clip-rule="evenodd" d="M15.1114 4.09326C25.442 4.09326 21.4163 21.212 15.1114 21.212C9.157 21.212 4.78077 4.09326 15.1114 4.09326Z" fill="#FFE8BE"/>
<path fill-rule="evenodd" clip-rule="evenodd" d="M8.91501 11.6719C7.42472 12.3223 8.69171 15.4033 9.62958 15.3892C9.24063 14.1839 9.00065 12.9355 8.91501 11.6719Z" fill="#F9DCA4"/>
<path fill-rule="evenodd" clip-rule="evenodd" d="M21.4275 11.6719C22.9178 12.3218 21.6508 15.4033 20.7134 15.3892C21.1021 14.1838 21.3419 12.9355 21.4275 11.6719Z" fill="#F9DCA4"/>
<path fill-rule="evenodd" clip-rule="evenodd" d="M10.6968 17.0382C10.6746 16.9586 10.6634 16.8763 10.6633 16.7936V16.7912C10.6687 16.629 10.7309 16.4739 10.8392 16.3531C10.9475 16.2323 11.0949 16.1535 11.2556 16.1305C11.185 16.2073 11.1397 16.3039 11.126 16.4073C11.1122 16.5107 11.1307 16.6158 11.1788 16.7084C11.2269 16.8009 11.3023 16.8764 11.3948 16.9245C11.4874 16.9727 11.5925 16.9912 11.6959 16.9776C11.8595 16.954 12.0195 16.91 12.1721 16.8465C12.3143 16.7814 12.4667 16.7062 12.6298 16.613C12.871 16.4641 13.1023 16.2997 13.3221 16.1208C13.5771 15.8891 13.9051 15.754 14.2493 15.7388C14.4785 15.7383 14.7007 15.8183 14.8769 15.965C14.9924 16.0541 15.0928 16.1613 15.174 16.2824C15.2552 16.1612 15.3555 16.054 15.4711 15.965C15.6472 15.8185 15.8692 15.7384 16.0983 15.7388C16.4427 15.7538 16.7709 15.889 17.026 16.1208C17.2458 16.2997 17.477 16.4642 17.7182 16.613C17.8813 16.7062 18.0337 16.7814 18.176 16.846C18.3286 16.9097 18.4886 16.9539 18.6522 16.9776C18.7556 16.9911 18.8606 16.9725 18.953 16.9243C19.0454 16.8761 19.1208 16.8006 19.1688 16.7081C19.2169 16.6156 19.2352 16.5105 19.2215 16.4072C19.2078 16.3038 19.1625 16.2072 19.092 16.1305C19.2525 16.1534 19.3999 16.2322 19.5082 16.3529C19.6165 16.4736 19.6788 16.6286 19.6842 16.7907H19.6852L19.6847 16.7936C19.6847 16.8763 19.6734 16.9586 19.6512 17.0382C19.2726 18.8008 16.0721 18.3824 15.174 17.2984C14.276 18.3824 11.075 18.8008 10.6968 17.0382Z" fill="#8A5C42"/>
<path fill-rule="evenodd" clip-rule="evenodd" d="M12.8306 2.78638H17.4442C18.538 2.78958 19.5862 3.22552 20.3597 3.99897C21.1332 4.77243 21.5691 5.82054 21.5723 6.91436V10.1133H8.70239V6.91436C8.70559 5.82054 9.14155 4.77243 9.91504 3.99897C10.6885 3.22552 11.7367 2.78958 12.8306 2.78638Z" fill="#464449"/>
<path fill-rule="evenodd" clip-rule="evenodd" d="M6.15724 9.625H24.1175C24.2935 9.62538 24.4623 9.69545 24.5868 9.81989C24.7114 9.94433 24.7816 10.113 24.7821 10.2891C24.7818 10.4653 24.7117 10.6342 24.5872 10.7588C24.4626 10.8835 24.2937 10.9537 24.1175 10.9541H6.15724C5.98111 10.9536 5.81235 10.8833 5.68789 10.7587C5.56344 10.634 5.49342 10.4652 5.49316 10.2891C5.49368 10.1131 5.56381 9.94448 5.68823 9.82006C5.81266 9.69564 5.98128 9.62551 6.15724 9.625Z" fill="#333333"/>
<path d="M8.70239 7.69775H21.5728V9.62486H8.70239V7.69775Z" fill="#677079"/>
<path fill-rule="evenodd" clip-rule="evenodd" d="M14.2817 23.4326V29.9809C14.8524 30.0107 15.4243 30.0058 15.9944 29.9663V23.4326H14.2817Z" fill="#D5E1ED"/>
<path fill-rule="evenodd" clip-rule="evenodd" d="M11.289 20.4731L14.2812 24.0075L9.99139 25.4239L9.98022 21.044L11.289 20.4731Z" fill="#D5E1ED"/>
<path fill-rule="evenodd" clip-rule="evenodd" d="M19.0252 20.4731L16.033 24.0075L20.3233 25.4239L20.3339 21.044L19.0252 20.4731Z" fill="#D5E1ED"/>
<path fill-rule="evenodd" clip-rule="evenodd" d="M11.6592 22.2966L14.1301 23.2578C14.2488 23.1105 14.3994 22.992 14.5704 22.9113C14.7415 22.8305 14.9286 22.7895 15.1178 22.7914C15.3069 22.7932 15.4932 22.8379 15.6627 22.9221C15.8321 23.0062 15.9803 23.1276 16.0961 23.2772L18.6155 22.2966V25.7931L16.0946 24.8145C15.9787 24.9635 15.8307 25.0844 15.6615 25.1682C15.4923 25.2519 15.3064 25.2964 15.1176 25.2982C14.9289 25.3 14.7421 25.2592 14.5714 25.1787C14.4006 25.0982 14.2503 24.9802 14.1315 24.8334L11.6592 25.7931V22.2966Z" fill="#464449"/>
<path fill-rule="evenodd" clip-rule="evenodd" d="M7.3374 22.3349L8.94129 21.6194V28.7249C8.39233 28.4776 7.85694 28.2011 7.3374 27.8968V22.3349Z" fill="#8A5C42"/>
<path fill-rule="evenodd" clip-rule="evenodd" d="M22.7831 22.4082L21.1792 21.6194V28.671C21.7302 28.4209 22.2658 28.138 22.7831 27.824V22.4082Z" fill="#8A5C42"/>
</svg>
