<svg width="30" height="30" viewBox="0 0 30 30" fill="none" xmlns="http://www.w3.org/2000/svg">
<g id="person_1">
<g id="&#226;&#128;&#148;&#195;&#142;&#195;&#147;&#195;&#136; 1">
<path id="Vector" fill-rule="evenodd" clip-rule="evenodd" d="M15.1114 4.09326C25.442 4.09326 21.4163 21.2127 15.1114 21.2127C9.157 21.2127 4.78077 4.09326 15.1114 4.09326Z" fill="#FFE8BE"/>
<path id="Vector_2" d="M15 30C23.2843 30 30 23.2843 30 15C30 6.71573 23.2843 0 15 0C6.71573 0 0 6.71573 0 15C0 23.2843 6.71573 30 15 30Z" fill="#485A69"/>
<path id="Vector_3" fill-rule="evenodd" clip-rule="evenodd" d="M25.6296 25.5832C25.3344 24.8735 25.3898 24.1667 23.0252 23.0652C21.9121 22.8021 19.0397 22.4249 18.497 21.4147C18.2223 20.904 18.2883 20.1841 18.2883 18.8458L12.0116 18.7764C12.0116 20.1249 12.0645 20.8438 11.7572 21.3487C11.1795 22.2987 7.41981 22.9914 6.2533 23.3021C4.2664 24.1851 4.49358 24.722 4.23145 25.441C5.61797 26.8713 7.27554 28.0111 9.10739 28.7938C10.9392 29.5765 12.9087 29.9865 14.9007 29.9997C16.8927 30.0129 18.8674 29.6292 20.7095 28.8709C22.5516 28.1126 24.2242 26.995 25.6296 25.5832Z" fill="#F9DCA4"/>
<path id="Vector_4" fill-rule="evenodd" clip-rule="evenodd" d="M25.6296 25.5832C25.35 24.9113 25.3844 24.2419 23.3839 23.2385C23.2732 23.1638 23.1522 23.1054 23.0247 23.0652C22.7878 23.0089 22.3645 22.9264 22.1548 22.8846C21.5883 26.3473 12.7922 31.0706 8.09845 22.8618C7.59359 22.9803 6.53582 23.2269 6.2533 23.3021C4.2664 24.1851 4.49358 24.7225 4.23145 25.441C5.61797 26.8713 7.27554 28.0111 9.10739 28.7938C10.9392 29.5765 12.9087 29.9864 14.9007 29.9997C16.8927 30.0129 18.8674 29.6292 20.7095 28.8709C22.5516 28.1126 24.2242 26.995 25.6296 25.5832Z" fill="#9F82BB"/>
<g id="Clip path group">
<mask id="mask0_559_38861" style="mask-type:luminance" maskUnits="userSpaceOnUse" x="4" y="22" width="22" height="8">
<g id="clip-path">
<path id="Vector_5" fill-rule="evenodd" clip-rule="evenodd" d="M25.6296 25.5832C25.35 24.9113 25.3844 24.2419 23.3839 23.2385C23.2732 23.1638 23.1522 23.1054 23.0247 23.0652C22.7878 23.0089 22.3645 22.9264 22.1548 22.8846C21.5883 26.3473 12.7922 31.0706 8.09845 22.8618C7.59359 22.9803 6.53582 23.2269 6.2533 23.3021C4.2664 24.1851 4.49358 24.7225 4.23145 25.441C5.61797 26.8713 7.27554 28.0111 9.10739 28.7938C10.9392 29.5765 12.9087 29.9864 14.9007 29.9997C16.8927 30.0129 18.8674 29.6292 20.7095 28.8709C22.5516 28.1126 24.2242 26.995 25.6296 25.5832Z" fill="white"/>
</g>
</mask>
<g mask="url(#mask0_559_38861)">
<g id="Group">
<path id="Vector_6" d="M7.34171 25.4393C7.76018 25.4393 8.09943 25.1 8.09943 24.6815C8.09943 24.2631 7.76018 23.9238 7.34171 23.9238C6.92323 23.9238 6.58398 24.2631 6.58398 24.6815C6.58398 25.1 6.92323 25.4393 7.34171 25.4393Z" fill="white"/>
<path id="Vector_7" d="M8.09467 28.4667C8.51317 28.4667 8.85242 28.1274 8.85242 27.7089C8.85242 27.2904 8.51317 26.9512 8.09467 26.9512C7.67617 26.9512 7.33691 27.2904 7.33691 27.7089C7.33691 28.1274 7.67617 28.4667 8.09467 28.4667Z" fill="white"/>
<path id="Vector_8" d="M11.6757 28.6199C12.0942 28.6199 12.4334 28.2807 12.4334 27.8622C12.4334 27.4437 12.0942 27.1045 11.6757 27.1045C11.2572 27.1045 10.918 27.4437 10.918 27.8622C10.918 28.2807 11.2572 28.6199 11.6757 28.6199Z" fill="white"/>
<path id="Vector_9" d="M15.4494 30.3743C15.8678 30.3743 16.2071 30.0351 16.2071 29.6166C16.2071 29.1981 15.8678 28.8589 15.4494 28.8589C15.0309 28.8589 14.6917 29.1981 14.6917 29.6166C14.6917 30.0351 15.0309 30.3743 15.4494 30.3743Z" fill="white"/>
<path id="Vector_10" d="M19.2409 28.3817C19.6594 28.3817 19.9986 28.0424 19.9986 27.624C19.9986 27.2055 19.6594 26.8662 19.2409 26.8662C18.8224 26.8662 18.4832 27.2055 18.4832 27.624C18.4832 28.0424 18.8224 28.3817 19.2409 28.3817Z" fill="white"/>
<path id="Vector_11" d="M22.8398 28.4594C23.2583 28.4594 23.5975 28.1201 23.5975 27.7016C23.5975 27.2831 23.2583 26.9438 22.8398 26.9438C22.4213 26.9438 22.082 27.2831 22.082 27.7016C22.082 28.1201 22.4213 28.4594 22.8398 28.4594Z" fill="white"/>
<path id="Vector_12" d="M23.0946 25.2991C23.5131 25.2991 23.8524 24.9599 23.8524 24.5414C23.8524 24.1229 23.5131 23.7837 23.0946 23.7837C22.6762 23.7837 22.3369 24.1229 22.3369 24.5414C22.3369 24.9599 22.6762 25.2991 23.0946 25.2991Z" fill="white"/>
</g>
</g>
</g>
<path id="Vector_13" fill-rule="evenodd" clip-rule="evenodd" d="M21.9603 17.9452C22.622 18.1941 23.35 18.2036 24.018 17.9722C24.686 17.7408 25.2521 17.2831 25.6181 16.6782L27.4142 17.5292C27.4142 17.5292 26.1472 20.5083 23.3763 19.8787C22.3443 19.6443 21.6914 19.369 21.0953 19.2564C19.1545 18.8899 18.4787 20.7399 20.6074 21.252C21.7797 21.5336 23.304 21.2316 23.6744 20.5345C24.3346 21.421 23.2457 22.9447 22.2739 22.9083C19.6064 22.8074 18.2661 21.6525 18.2826 20.1462C18.2996 18.5763 19.454 17.1292 21.9603 17.9452Z" fill="#E9573E"/>
<path id="Vector_14" fill-rule="evenodd" clip-rule="evenodd" d="M11.7757 19.0155C11.6693 19.1935 11.6369 19.4061 11.6854 19.6077C11.7308 20.1929 11.6564 20.7813 11.4669 21.3368C10.2737 23.3495 16.7907 26.7359 19.3529 22.099C19.6878 21.597 18.2228 21.1364 18.6937 19.5893C18.7212 19.523 18.7318 19.4509 18.7247 19.3795C18.7175 19.3081 18.6928 19.2395 18.6527 19.18C18.6126 19.1205 18.5584 19.0718 18.4949 19.0384C18.4314 19.0049 18.3606 18.9877 18.2888 18.9883C18.2888 18.9883 15.6946 21.1635 11.7757 19.0155Z" fill="#E9573E"/>
<g id="Clip path group_2">
<mask id="mask1_559_38861" style="mask-type:luminance" maskUnits="userSpaceOnUse" x="11" y="18" width="9" height="7">
<g id="clip-path-2">
<path id="Vector_15" fill-rule="evenodd" clip-rule="evenodd" d="M11.7757 19.0155C11.6693 19.1935 11.6369 19.4061 11.6854 19.6077C11.7308 20.1929 11.6564 20.7813 11.4669 21.3368C10.2737 23.3495 16.7907 26.7359 19.3529 22.099C19.6878 21.597 18.2228 21.1364 18.6937 19.5893C18.7212 19.523 18.7318 19.4509 18.7247 19.3795C18.7175 19.3081 18.6928 19.2395 18.6527 19.18C18.6126 19.1205 18.5584 19.0718 18.4949 19.0384C18.4314 19.0049 18.3606 18.9877 18.2888 18.9883C18.2888 18.9883 15.6946 21.1635 11.7757 19.0155Z" fill="white"/>
</g>
</mask>
<g mask="url(#mask1_559_38861)">
<g id="Group_2">
<path id="Vector_16" opacity="0.11" fill-rule="evenodd" clip-rule="evenodd" d="M18.2898 18.8242L19.1107 19.2374C19.1301 19.6597 19.1539 21.4704 19.4515 21.9252C18.5743 23.9398 12.5898 23.5796 11.7456 18.7456L18.2898 18.8242Z" fill="black"/>
</g>
</g>
</g>
<path id="Vector_17" fill-rule="evenodd" clip-rule="evenodd" d="M9.27681 11.7393C7.84088 12.3655 9.06224 15.3364 9.96613 15.3233C9.59108 14.1612 9.35959 12.9576 9.27681 11.7393Z" fill="#F9DCA4"/>
<path id="Vector_18" fill-rule="evenodd" clip-rule="evenodd" d="M21.12 11.7388C22.5569 12.366 21.335 15.3364 20.4312 15.3232C20.8062 14.161 21.0375 12.9572 21.12 11.7388Z" fill="#F9DCA4"/>
<path id="Vector_19" fill-rule="evenodd" clip-rule="evenodd" d="M15.1039 4.20679C19.3379 4.20679 21.1122 7.21651 21.2209 10.6956C21.3699 15.4578 18.466 21.0986 15.1044 21.0986C11.9199 21.0986 8.93639 15.2646 9.11746 10.4539C9.24367 7.07864 10.9689 4.20679 15.1039 4.20679Z" fill="#FFE8BE"/>
<path id="Vector_20" fill-rule="evenodd" clip-rule="evenodd" d="M18.6218 8.05209C18.5373 8.40549 17.081 11.0972 14.8917 12.0021C15.2587 11.3628 15.848 10.5982 15.8907 9.86618C14.8412 11.4065 10.5591 12.9424 8.0266 12.1914C7.45815 2.81082 14.6514 3.03703 15.1373 3.06324C15.6237 3.03703 22.8349 2.89819 22.2665 12.2778C19.4339 11.7487 18.4655 9.58705 18.6218 8.05209Z" fill="#ECBE6A"/>
<path id="Vector_21" fill-rule="evenodd" clip-rule="evenodd" d="M8.13306 9.60109C8.75005 0.627755 21.6904 0.973874 22.1525 9.60109C20.0185 3.59233 9.95588 3.68505 8.13306 9.60109Z" fill="#E9573E"/>
<path id="Vector_22" fill-rule="evenodd" clip-rule="evenodd" d="M21.1943 11.9695C21.1943 11.9695 20.0832 17.1666 16.5152 19.1686C27.9366 16.1414 24.2273 3.48404 19.7176 3.47725C18.3181 -0.339757 7.84865 0.710247 6.39234 8.06464C4.93602 15.419 11.2093 18.6292 11.7064 18.9249C10.9389 17.8067 10.3211 16.5928 9.86905 15.3142C9.37074 15.0111 8.99963 14.5371 8.82487 13.9807C8.64619 13.4471 8.6107 12.876 8.72196 12.3244C8.36953 12.2608 8.09866 12.1909 8.09866 12.1909C8.03354 11.3799 8.04329 10.5646 8.12778 9.75542C8.3171 7.86512 8.99623 5.33987 11.4433 3.95589C13.1535 2.98889 16.8409 2.71802 19.0608 4.11511C21.6637 5.75298 22.372 9.30445 22.1929 12.1865L21.1943 11.9695Z" fill="#D6A956"/>
</g>
</g>
</svg>
