<svg width="30" height="30" viewBox="0 0 30 30" fill="none" xmlns="http://www.w3.org/2000/svg">
<path d="M14.9999 29.9999C23.2842 29.9999 29.9999 23.2842 29.9999 14.9999C29.9999 6.7157 23.2842 0 14.9999 0C6.7157 0 0 6.7157 0 14.9999C0 23.2842 6.7157 29.9999 14.9999 29.9999Z" fill="#9F82BB"/>
<path fill-rule="evenodd" clip-rule="evenodd" d="M11.2888 18.7769L19.0107 18.8356V25.1065L11.2888 25.0477V18.7769Z" fill="#F9DCA4"/>
<path fill-rule="evenodd" clip-rule="evenodd" d="M25.9601 25.2392C24.5585 26.7433 22.8618 27.9424 20.9761 28.7615C19.0903 29.5806 17.0559 30.0021 14.9999 29.9998C14.3773 29.9998 13.7552 29.9614 13.1373 29.8848C11.2422 29.6132 9.40869 29.0147 7.71838 28.1159C6.29183 27.3219 5.00383 26.3013 3.90479 25.094L4.5276 23.5892L11.2873 20.5736C11.2873 22.7751 11.9232 25.4377 14.8985 25.4828C18.5732 25.5382 19.0101 22.8251 19.0101 20.5557L25.2189 23.6052L25.9601 25.2392Z" fill="#434955"/>
<path opacity="0.11" fill-rule="evenodd" clip-rule="evenodd" d="M19.0127 18.8241V20.562C19.0112 20.7539 18.9952 20.9454 18.9646 21.1348C18.9264 21.3686 18.8621 21.5974 18.7729 21.8169C16.1641 23.8382 12.0064 22.18 11.3428 18.7271L19.0127 18.8241Z" fill="black"/>
<path fill-rule="evenodd" clip-rule="evenodd" d="M15.1114 4.09326C25.4419 4.09326 21.4162 21.2127 15.1114 21.2127C9.157 21.2127 4.78079 4.09326 15.1114 4.09326Z" fill="#FFE8BE"/>
<path fill-rule="evenodd" clip-rule="evenodd" d="M8.91501 11.6728C7.42472 12.3228 8.69171 15.4039 9.62957 15.3903C9.24058 14.1848 9.00061 12.9367 8.91501 11.6728Z" fill="#F9DCA4"/>
<path fill-rule="evenodd" clip-rule="evenodd" d="M21.4275 11.6724C22.9177 12.3224 21.6508 15.4039 20.7134 15.3898C21.1021 14.1844 21.3419 12.936 21.4275 11.6724Z" fill="#F9DCA4"/>
<path fill-rule="evenodd" clip-rule="evenodd" d="M11.2871 20.5737C9.03567 21.1086 6.87572 21.9736 4.87744 23.1407C4.07889 23.5995 4.09831 24.3053 4.27695 24.5611C4.91579 25.4747 6.97161 24.3077 7.71821 23.998C8.99406 23.4489 10.2969 22.9646 11.6216 22.547C11.3516 21.9262 11.2368 21.2489 11.2871 20.5737Z" fill="#677079"/>
<path fill-rule="evenodd" clip-rule="evenodd" d="M15.15 29.4298C13.6806 28.3667 11.3087 25.4638 11.2874 22.0448C11.2874 25.773 19.0107 25.7584 19.0107 22.0303C18.6941 25.9312 16.5917 28.4278 15.15 29.4298Z" fill="white"/>
<path fill-rule="evenodd" clip-rule="evenodd" d="M19.0666 20.4648C21.1416 21.0708 23.1306 21.9397 24.9851 23.0503C25.7836 23.509 25.7642 24.2144 25.5856 24.4702C24.9467 25.3838 22.8909 24.2168 22.1443 23.9076C20.6977 23.308 19.1569 22.5144 18.7317 22.4381C19.0019 21.8173 19.1168 21.14 19.0666 20.4648Z" fill="#677079"/>
<path fill-rule="evenodd" clip-rule="evenodd" d="M11.2887 19.8496C11.2343 23.488 14.0843 26.7477 16.1698 29.6457C16.2329 29.7331 16.1081 29.5588 16.1698 29.6457C15.8916 29.6297 15.7911 29.8593 15.5004 29.8132C12.9159 29.404 9.97464 27.8884 9.19891 26.6724C9.05182 26.4423 10.8203 24.7734 10.7285 24.52C10.679 24.3821 9.18872 24.5666 8.34115 24.8341C8.27901 24.8535 8.27221 24.7185 8.25814 24.6549C7.86542 22.853 8.546 20.8321 11.2887 19.8496Z" fill="#677079"/>
<path fill-rule="evenodd" clip-rule="evenodd" d="M15.3058 29.1672C15.3288 29.1697 15.351 29.1769 15.3712 29.1883C15.3913 29.1996 15.409 29.215 15.4231 29.2333C15.4371 29.2517 15.4473 29.2727 15.4531 29.2951C15.4588 29.3176 15.4599 29.3409 15.4564 29.3638C15.4528 29.3866 15.4447 29.4085 15.4324 29.4282C15.4202 29.4478 15.4041 29.4648 15.3851 29.478C15.3662 29.4913 15.3447 29.5005 15.3221 29.5053C15.2994 29.51 15.2761 29.5101 15.2534 29.5055C14.0471 29.3064 12.8747 28.9393 11.7704 28.4148C10.917 28.0613 10.1701 27.4924 9.6024 26.7638C9.47133 26.5575 9.88735 26.023 10.3257 25.4628C10.6349 25.1161 10.9026 24.7343 11.1233 24.3254C10.8629 24.2968 10.6005 24.292 10.3393 24.3114C9.83406 24.3224 9.33114 24.3832 8.83783 24.4929C8.78444 24.506 8.73152 24.5211 8.68055 24.5366L8.6689 24.54C8.62278 24.552 8.5739 24.547 8.53114 24.526C8.48839 24.5049 8.45459 24.4693 8.43589 24.4254C8.3778 24.3006 8.34323 24.1662 8.33395 24.0288C8.3127 23.8184 8.31189 23.6064 8.33152 23.3958C8.40448 22.6177 8.70034 21.8772 9.18364 21.263C9.66694 20.6488 10.3171 20.1871 11.0563 19.9332C11.0985 19.9163 11.1457 19.9168 11.1876 19.9347C11.2294 19.9526 11.2624 19.9864 11.2793 20.0286C11.2963 20.0708 11.2957 20.1181 11.2778 20.1599C11.26 20.2017 11.2262 20.2347 11.184 20.2517C10.5045 20.483 9.90633 20.9055 9.46115 21.4685C9.01597 22.0315 8.74274 22.711 8.67424 23.4254C8.65629 23.6137 8.65661 23.8033 8.67521 23.9915C8.68134 24.0524 8.69123 24.1128 8.70482 24.1725L8.7558 24.1594C9.27351 24.0444 9.8013 23.9806 10.3315 23.9691C10.6899 23.9276 11.0528 23.9842 11.3815 24.1327C11.4089 24.1503 11.4306 24.1754 11.4441 24.2051C11.4472 24.2115 11.4498 24.2181 11.4519 24.225L11.4558 24.2381C11.5184 24.4905 11.0451 25.0973 10.5951 25.6735C10.3589 25.9742 10.1242 26.2761 9.89123 26.5793C10.4256 27.2535 11.1241 27.7791 11.9199 28.106C12.9934 28.6161 14.1331 28.9733 15.3058 29.1672Z" fill="#434955"/>
<path fill-rule="evenodd" clip-rule="evenodd" d="M19.0106 19.8496C19.0669 23.5977 15.9101 26.9904 13.8115 29.953C18.645 30.0258 20.1504 27.7418 21.1008 26.6719C21.2819 26.4681 19.4795 24.7734 19.5712 24.52C19.6207 24.3821 21.111 24.5666 21.9581 24.8341C22.0207 24.8535 22.0275 24.719 22.0416 24.6549C22.4343 22.853 21.7538 20.8321 19.0106 19.8496Z" fill="#677079"/>
<path fill-rule="evenodd" clip-rule="evenodd" d="M14.2297 29.7086C14.1844 29.7046 14.1425 29.6829 14.1132 29.648C14.0839 29.6132 14.0697 29.5682 14.0736 29.5229C14.0776 29.4776 14.0993 29.4357 14.1342 29.4064C14.169 29.3771 14.214 29.3629 14.2593 29.3668C15.4243 29.4391 16.5884 29.2127 17.6414 28.709C18.7368 28.2535 19.6941 27.5193 20.4181 26.5794C20.419 26.5775 20.0753 26.1372 19.7142 25.6741C19.2642 25.0974 18.7909 24.4906 18.8535 24.2382L18.8569 24.2255C18.8592 24.2186 18.8619 24.2118 18.8651 24.2052C18.8787 24.1754 18.9004 24.1502 18.9278 24.1323C19.2564 23.9841 19.6191 23.9277 19.9773 23.9692C20.5077 23.9807 21.0356 24.0444 21.5535 24.1595L21.604 24.1726C21.6176 24.1129 21.6275 24.0525 21.6336 23.9916C21.6522 23.8034 21.6525 23.6138 21.6346 23.4255C21.566 22.7112 21.2927 22.0318 20.8475 21.4689C20.4023 20.906 19.8042 20.4836 19.1248 20.2522C19.1039 20.2438 19.0849 20.2314 19.0688 20.2156C19.0527 20.1998 19.0399 20.181 19.031 20.1603C19.0222 20.1396 19.0175 20.1173 19.0173 20.0948C19.0171 20.0722 19.0213 20.0499 19.0297 20.0289C19.0381 20.008 19.0506 19.989 19.0663 19.9729C19.0821 19.9568 19.1009 19.944 19.1216 19.9351C19.1424 19.9263 19.1647 19.9216 19.1872 19.9214C19.2097 19.9212 19.2321 19.9254 19.253 19.9338C19.992 20.1877 20.642 20.6494 21.1252 21.2635C21.6084 21.8776 21.9043 22.618 21.9773 23.3959C21.9969 23.6065 21.9961 23.8185 21.9748 24.0289C21.9656 24.1663 21.931 24.3007 21.8729 24.4255C21.8542 24.4694 21.8204 24.505 21.7777 24.5261C21.7349 24.5471 21.686 24.5521 21.6399 24.5401L21.6282 24.5372C21.5765 24.5209 21.5242 24.5061 21.4715 24.493C20.978 24.3834 20.4749 24.3228 19.9695 24.312C19.7085 24.2925 19.4462 24.297 19.186 24.3255C19.4068 24.7345 19.6746 25.1162 19.9841 25.4629C20.4219 26.0241 20.8384 26.5581 20.7069 26.7639C19.9465 27.7595 18.9382 28.5382 17.7826 29.0221C16.6761 29.5499 15.4531 29.7865 14.2297 29.7086Z" fill="#434955"/>
<path d="M19.4713 26.9108C19.6962 26.9108 19.8786 26.7284 19.8786 26.5035C19.8786 26.2785 19.6962 26.0962 19.4713 26.0962C19.2463 26.0962 19.064 26.2785 19.064 26.5035C19.064 26.7284 19.2463 26.9108 19.4713 26.9108Z" fill="#E6E6E6"/>
<path d="M10.887 26.9108C11.112 26.9108 11.2943 26.7284 11.2943 26.5035C11.2943 26.2785 11.112 26.0962 10.887 26.0962C10.6621 26.0962 10.4797 26.2785 10.4797 26.5035C10.4797 26.7284 10.6621 26.9108 10.887 26.9108Z" fill="#E6E6E6"/>
<path d="M9.37607 23.7433C9.60102 23.7433 9.78338 23.561 9.78338 23.336C9.78338 23.1111 9.60102 22.9287 9.37607 22.9287C9.15111 22.9287 8.96875 23.1111 8.96875 23.336C8.96875 23.561 9.15111 23.7433 9.37607 23.7433Z" fill="#E6E6E6"/>
<path d="M20.972 23.7433C21.197 23.7433 21.3793 23.561 21.3793 23.336C21.3793 23.1111 21.197 22.9287 20.972 22.9287C20.7471 22.9287 20.5647 23.1111 20.5647 23.336C20.5647 23.561 20.7471 23.7433 20.972 23.7433Z" fill="#E6E6E6"/>
<path fill-rule="evenodd" clip-rule="evenodd" d="M8.2691 12.5155C8.31359 12.3002 8.41065 12.0992 8.55162 11.9305C8.53966 13.168 8.91662 14.378 9.62929 15.3898C8.86473 8.14461 10.3706 6.87228 10.3706 6.87228C10.3706 6.87228 14.8939 10.2854 19.9186 6.86306C19.9186 6.86306 21.5104 8.14413 20.7458 15.3893C21.5104 14.2606 21.6827 13.2985 21.738 11.8966C21.9255 12.0799 22.0476 12.3196 22.0856 12.5791C22.0856 12.5791 22.9468 8.17617 21.04 5.74364C21.2128 5.47034 22.0958 4.70529 22.3686 4.72374C22.6414 4.74219 21.2036 4.14122 19.456 4.43248C19.871 3.99532 20.3574 3.63204 20.8943 3.35821C20.0073 3.18627 19.1015 3.13111 18.2002 3.19413C18.7059 2.81342 19.2561 2.49556 19.8385 2.24753C18.4344 1.82173 16.9383 1.80288 15.5239 2.19316C16.0289 1.59723 16.6323 1.09234 17.3079 0.700439C17.3079 0.700439 12.7026 0.955294 10.2997 4.37762C10.1428 3.83391 10.1591 3.25486 10.3463 2.72083C10.3463 2.72083 7.30599 5.57471 8.2691 12.5155Z" fill="#464449"/>
<path fill-rule="evenodd" clip-rule="evenodd" d="M15.1743 22.4971C12.0592 21.0674 13.3199 19.0403 13.3199 19.0403C13.3484 19.2654 13.4401 19.4778 13.5844 19.6528C13.7288 19.8278 13.9199 19.9583 14.1354 20.0291C14.3616 19.5386 14.7217 19.122 15.1743 18.8271C15.5984 19.1472 15.9459 19.5578 16.1913 20.0291C16.4068 19.9583 16.5978 19.8278 16.7422 19.6527C16.8865 19.4777 16.9783 19.2653 17.0068 19.0403C17.0068 19.0403 18.2883 21.0674 15.1743 22.4971Z" fill="#464449"/>
<path fill-rule="evenodd" clip-rule="evenodd" d="M10.1395 11.7681L10.1701 11.7608C13.6225 10.903 14.4239 11.7734 14.6104 12.2186C14.9739 12.1104 15.3613 12.1121 15.7239 12.2234C15.9065 11.7797 16.7006 10.8996 20.1667 11.7608L20.1968 11.7681L20.7327 11.9103C20.7774 11.9228 20.8153 11.9524 20.8381 11.9928C20.861 12.0332 20.8669 12.081 20.8545 12.1257C20.8422 12.1704 20.8126 12.2084 20.7723 12.2314C20.732 12.2543 20.6842 12.2604 20.6395 12.2482L20.3273 12.1637C20.3371 12.8695 20.1739 14.8496 18.0604 15.0011C15.8079 15.1618 15.6647 13.1166 15.6662 12.5734C15.3441 12.4617 14.9941 12.4593 14.6705 12.5666C14.673 13.1001 14.5375 15.1622 12.2759 15.0011C10.1623 14.8496 9.99919 12.8695 10.0089 12.1637L9.69725 12.2482C9.67506 12.2543 9.65189 12.256 9.62904 12.2532C9.60619 12.2504 9.58411 12.2431 9.56408 12.2318C9.54404 12.2205 9.52643 12.2053 9.51226 12.1872C9.49809 12.169 9.48762 12.1483 9.48147 12.1261C9.47532 12.1039 9.4736 12.0807 9.4764 12.0579C9.47921 12.035 9.48649 12.0129 9.49783 11.9929C9.50916 11.9729 9.52434 11.9553 9.54248 11.9411C9.56062 11.9269 9.58138 11.9165 9.60356 11.9103L10.1395 11.7681Z" fill="#677079"/>
<path opacity="0.5" fill-rule="evenodd" clip-rule="evenodd" d="M17.5378 11.5936C17.9301 11.5467 18.3264 11.5436 18.7194 11.5843L17.3111 14.746C16.9546 14.6473 16.6346 14.4465 16.3907 14.1683L17.5378 11.5936ZM11.9184 11.4382C12.3487 11.3869 12.7834 11.3835 13.2145 11.428L11.6694 14.895C11.2786 14.7868 10.928 14.5668 10.6606 14.262L11.9179 11.4387L11.9184 11.4382ZM13.6611 11.513L12.0854 14.9814C12.1469 14.9895 12.2103 14.996 12.2757 15.0009C12.3155 15.0033 12.3548 15.0057 12.3932 15.0072L13.9378 11.6081C13.8478 11.5705 13.7554 11.5389 13.6611 11.5135V11.513ZM19.1271 11.662L17.6903 14.8246C17.7462 14.8321 17.804 14.8379 17.8636 14.8421C17.9 14.8445 17.9359 14.847 17.9708 14.8479L19.3796 11.7484C19.2974 11.7142 19.2131 11.6853 19.1271 11.662Z" fill="#E6E6E6"/>
<path fill-rule="evenodd" clip-rule="evenodd" d="M10.1395 11.7681C10.1494 11.7647 10.1597 11.7623 10.1701 11.7608C13.6225 10.903 14.4239 11.7734 14.6104 12.2186C14.9739 12.1104 15.3613 12.1121 15.7239 12.2234C15.9065 11.7797 16.7006 10.8996 20.1667 11.7608C20.1769 11.7623 20.187 11.7647 20.1968 11.7681C20.3691 11.8113 20.5472 11.8584 20.7327 11.9103C20.7774 11.9228 20.8153 11.9524 20.8381 11.9928C20.861 12.0332 20.8669 12.081 20.8545 12.1257C20.8422 12.1704 20.8126 12.2084 20.7723 12.2314C20.732 12.2543 20.6842 12.2604 20.6395 12.2482C20.5327 12.2186 20.4293 12.1904 20.3273 12.1637C20.3371 12.8695 20.1739 14.8496 18.0604 15.0011C15.8079 15.1618 15.6647 13.1166 15.6662 12.5734C15.3441 12.4617 14.9941 12.4593 14.6705 12.5666C14.673 13.1001 14.5375 15.1622 12.2759 15.0011C10.1623 14.8496 9.99919 12.8695 10.0089 12.1637C9.90696 12.1904 9.80356 12.2186 9.69725 12.2482C9.67506 12.2543 9.65189 12.256 9.62904 12.2532C9.60619 12.2504 9.58411 12.2431 9.56408 12.2318C9.54404 12.2205 9.52643 12.2053 9.51226 12.1872C9.49809 12.169 9.48762 12.1483 9.48147 12.1261C9.47532 12.1039 9.4736 12.0807 9.4764 12.0579C9.47921 12.035 9.48649 12.0129 9.49783 11.9929C9.50916 11.9729 9.52434 11.9553 9.54248 11.9411C9.56062 11.9269 9.58138 11.9165 9.60356 11.9103C9.789 11.8584 9.96715 11.8108 10.1395 11.7681ZM18.0356 14.6506C19.9565 14.5132 19.9968 12.5792 19.9744 12.0739C16.1817 11.1443 16.0269 12.3525 16.0205 12.4501L16.0196 12.4613C16.0196 12.4681 15.8487 14.8064 18.0356 14.6506ZM10.1701 11.7608L10.2142 11.7598C10.1994 11.7581 10.1844 11.7584 10.1696 11.7608H10.1701ZM10.3623 12.0734C10.3395 12.5792 10.3803 14.5132 12.3006 14.6506C14.4875 14.8064 14.3167 12.4681 14.3162 12.4613V12.4501C14.3094 12.3525 14.1545 11.1438 10.3623 12.0734Z" fill="#464449"/>
</svg>
